<?xml version="1.0" encoding="UTF-8"?>
<svg xmlns="http://www.w3.org/2000/svg" viewBox="0 0 504.12 506.2"><defs><style>.cls-1{fill:#142540;}.cls-2{fill:#3bbaf2;}.cls-3{fill:#33d374;}.cls-4{fill:#ff6631;}.cls-5{fill:#ffd44d;}</style></defs><g id="Layer_2" data-name="Layer 2"><g id="Layer_1-2" data-name="Layer 1"><path class="cls-1" d="M227.7,340.22V480.8a25.4,25.4,0,1,0,50.79,0V340.22H227.7Z"/><path class="cls-1" d="M278.49,166V25.4a25.4,25.4,0,1,0-50.79,0V166h50.79Z"/><path class="cls-1" d="M478.72,227.7H338.14v50.8H478.72a25.4,25.4,0,0,0,0-50.8"/><path class="cls-1" d="M166,227.7H25.39a25.4,25.4,0,0,0,0,50.8H166V227.7Z"/><path class="cls-2" d="M283.61,319.54,396.15,432.07a25.4,25.4,0,1,0,35.92-35.92L319.53,283.62H283.61Z"/><path class="cls-3" d="M222.58,186.67,110.05,74.13a25.4,25.4,0,0,0-35.92,35.92L186.66,222.58h35.92Z"/><path class="cls-4" d="M319.53,222.58,432.06,110.05a25.4,25.4,0,1,0-35.91-35.92L283.61,186.67v35.91Z"/><path class="cls-5" d="M186.66,283.62,74.13,396.15a25.4,25.4,0,1,0,35.92,35.92L222.58,319.54V283.62Z"/></g></g></svg>